<svg width="45" height="45" viewBox="0 0 45 45" fill="none" xmlns="http://www.w3.org/2000/svg">
<g clip-path="url(#clip0_1_215)">
<g filter="url(#filter0_d_1_215)">
<path d="M17.0386 13.7552L26.4803 23.2518C27.3376 24.1125 27.3376 25.5116 26.4803 26.3723C25.6229 27.2356 24.2328 27.2356 23.3754 26.3723L13.9338 16.8783L4.39745 26.4697C3.53199 27.3412 2.13102 27.3412 1.26555 26.4697C0.400089 25.601 0.400089 24.1882 1.26555 23.3195L10.8019 13.7254L1.6496 4.52105C0.792252 3.65772 0.792252 2.26124 1.6496 1.3979C2.50695 0.534572 3.8971 0.534572 4.75175 1.3979L13.904 10.605L23.1888 1.268C24.0543 0.399254 25.4553 0.399254 26.3207 1.268C27.1862 2.13945 27.1862 3.54947 26.3207 4.41821L17.0386 13.7552Z" fill="#E4E4E4"/>
</g>
</g>
<defs>
<filter id="filter0_d_1_215" x="-5.38354" y="-5.38356" width="46.5068" height="46.5069" filterUnits="userSpaceOnUse" color-interpolation-filters="sRGB">
<feFlood flood-opacity="0" result="BackgroundImageFix"/>
<feColorMatrix in="SourceAlpha" type="matrix" values="0 0 0 0 0 0 0 0 0 0 0 0 0 0 0 0 0 0 127 0" result="hardAlpha"/>
<feOffset dx="4" dy="4"/>
<feGaussianBlur stdDeviation="5"/>
<feComposite in2="hardAlpha" operator="out"/>
<feColorMatrix type="matrix" values="0 0 0 0 0 0 0 0 0 0 0 0 0 0 0 0 0 0 0.25 0"/>
<feBlend mode="normal" in2="BackgroundImageFix" result="effect1_dropShadow_1_215"/>
<feBlend mode="normal" in="SourceGraphic" in2="effect1_dropShadow_1_215" result="shape"/>
</filter>
<clipPath id="clip0_1_215">
<rect width="45" height="45" fill="white"/>
</clipPath>
</defs>
</svg>
