<svg width="43" height="43" viewBox="0 0 43 43" fill="none" xmlns="http://www.w3.org/2000/svg">
<g clip-path="url(#clip0_1_150)">
<g filter="url(#filter0_d_1_150)">
<path d="M12.9 0C5.77705 0 0 5.92199 0 13.2261C0 19.0699 3.69585 24.0274 8.82252 25.7766C9.46645 25.8989 9.675 25.4889 9.675 25.1406V22.6784C6.08665 23.4786 5.33952 21.1177 5.33952 21.1177C4.75257 19.589 3.90655 19.1823 3.90655 19.1823C2.73587 18.3612 3.99577 18.3788 3.99577 18.3788C5.29115 18.4714 5.9727 19.7422 5.9727 19.7422C7.12295 21.7636 8.99022 21.1794 9.7266 20.8411C9.84162 19.9869 10.176 19.4027 10.5457 19.0732C7.68087 18.737 4.66872 17.6029 4.66872 12.5362C4.66872 11.0912 5.1729 9.91187 5.99742 8.98604C5.86412 8.65208 5.4223 7.30633 6.1232 5.48553C6.1232 5.48553 7.2068 5.13063 9.67177 6.84121C10.7005 6.54803 11.8035 6.40144 12.9 6.39593C13.9965 6.40144 15.1005 6.54803 16.1314 6.84121C18.5943 5.13063 19.6757 5.48553 19.6757 5.48553C20.3777 7.30743 19.9359 8.65319 19.8026 8.98604C20.6303 9.91187 21.1302 11.0923 21.1302 12.5362C21.1302 17.6161 18.1127 18.7348 15.2403 19.0621C15.7025 19.4721 16.125 20.2767 16.125 21.5112V25.1406C16.125 25.4922 16.3314 25.9056 16.9861 25.7755C22.1084 24.0241 25.8 19.0676 25.8 13.2261C25.8 5.92199 20.024 0 12.9 0Z" fill="black"/>
</g>
</g>
<defs>
<filter id="filter0_d_1_150" x="-6" y="-6" width="45.8" height="45.8" filterUnits="userSpaceOnUse" color-interpolation-filters="sRGB">
<feFlood flood-opacity="0" result="BackgroundImageFix"/>
<feColorMatrix in="SourceAlpha" type="matrix" values="0 0 0 0 0 0 0 0 0 0 0 0 0 0 0 0 0 0 127 0" result="hardAlpha"/>
<feOffset dx="4" dy="4"/>
<feGaussianBlur stdDeviation="5"/>
<feComposite in2="hardAlpha" operator="out"/>
<feColorMatrix type="matrix" values="0 0 0 0 0 0 0 0 0 0 0 0 0 0 0 0 0 0 0.25 0"/>
<feBlend mode="normal" in2="BackgroundImageFix" result="effect1_dropShadow_1_150"/>
<feBlend mode="normal" in="SourceGraphic" in2="effect1_dropShadow_1_150" result="shape"/>
</filter>
<clipPath id="clip0_1_150">
<rect width="43" height="43" fill="white"/>
</clipPath>
</defs>
</svg>
