<svg width="51" height="51" viewBox="0 0 51 51" fill="none" xmlns="http://www.w3.org/2000/svg">
<g clip-path="url(#clip0_1_121)">
<rect x="9" y="12" width="22" height="21" fill="white"/>
<g filter="url(#filter0_d_1_121)">
<path d="M28.2045 9.27271H11.9773C8.77702 9.27271 6.18182 11.8679 6.18182 15.0682V31.2954C6.18182 34.4957 8.77702 37.0909 11.9773 37.0909H28.2045C31.406 37.0909 34 34.4957 34 31.2954V15.0682C34 11.8679 31.406 9.27271 28.2045 9.27271ZM15.4545 31.2954H11.9773V18.5454H15.4545V31.2954ZM13.7159 17.0757C12.5962 17.0757 11.6875 16.16 11.6875 15.0311C11.6875 13.9021 12.5962 12.9864 13.7159 12.9864C14.8356 12.9864 15.7443 13.9021 15.7443 15.0311C15.7443 16.16 14.8367 17.0757 13.7159 17.0757ZM29.3636 31.2954H25.8864V24.7999C25.8864 20.8961 21.25 21.1916 21.25 24.7999V31.2954H17.7727V18.5454H21.25V20.5912C22.8681 17.5938 29.3636 17.3724 29.3636 23.4611V31.2954Z" fill="#005AB3"/>
</g>
</g>
<defs>
<filter id="filter0_d_1_121" x="0.181816" y="3.27271" width="47.8182" height="47.8182" filterUnits="userSpaceOnUse" color-interpolation-filters="sRGB">
<feFlood flood-opacity="0" result="BackgroundImageFix"/>
<feColorMatrix in="SourceAlpha" type="matrix" values="0 0 0 0 0 0 0 0 0 0 0 0 0 0 0 0 0 0 127 0" result="hardAlpha"/>
<feOffset dx="4" dy="4"/>
<feGaussianBlur stdDeviation="5"/>
<feComposite in2="hardAlpha" operator="out"/>
<feColorMatrix type="matrix" values="0 0 0 0 0 0 0 0 0 0 0 0 0 0 0 0 0 0 0.25 0"/>
<feBlend mode="normal" in2="BackgroundImageFix" result="effect1_dropShadow_1_121"/>
<feBlend mode="normal" in="SourceGraphic" in2="effect1_dropShadow_1_121" result="shape"/>
</filter>
<clipPath id="clip0_1_121">
<rect width="51" height="51" fill="white"/>
</clipPath>
</defs>
</svg>
