<svg width="68" height="68" viewBox="0 0 68 68" fill="none" xmlns="http://www.w3.org/2000/svg">
<g clip-path="url(#clip0_20_93)">
<path d="M45.1147 8.95682C40.3201 4.18033 33.9447 1.54839 27.1521 1.54547C13.155 1.54547 1.76421 12.8818 1.7586 26.8158C1.75697 31.2698 2.92597 35.6176 5.14793 39.4501L1.54541 52.5455L15.0068 49.0315C18.7157 51.0451 22.8916 52.1062 27.1412 52.1079H27.152H27.1521C41.1469 52.1079 52.5395 40.7696 52.5454 26.8363C52.5477 20.0832 49.9086 13.7336 45.1147 8.95682ZM27.1521 47.8397H27.1439C23.356 47.8377 19.6415 46.8253 16.4015 44.9113L15.6305 44.4563L7.64222 46.5413L9.77497 38.7904L9.27261 37.9958C7.15971 34.6512 6.04428 30.7862 6.04587 26.8174C6.05051 15.2359 15.5181 5.81389 27.1601 5.81389C32.7978 5.81622 38.0965 8.0039 42.0816 11.974C46.0665 15.944 48.2594 21.2216 48.2578 26.8345C48.2528 38.4163 38.7849 47.8397 27.1521 47.8397Z" fill="#E0E0E0"/>
<g filter="url(#filter0_d_20_93)">
<path d="M3.09082 51L6.47516 38.698C4.38723 35.0977 3.28924 31.013 3.29056 26.8296C3.29604 13.7401 13.9971 3.09088 27.1453 3.09088C33.5267 3.09375 39.5161 5.5661 44.0193 10.0533C48.5235 14.5405 51.0025 20.505 50.9999 26.8482C50.9944 39.938 40.2928 50.5882 27.1462 50.5882H27.1356C23.1434 50.5869 19.2207 49.5893 15.7367 47.699L3.09082 51Z" fill="url(#paint0_linear_20_93)"/>
</g>
<path fill-rule="evenodd" clip-rule="evenodd" d="M20.5888 16.5316C20.1047 15.5074 19.5949 15.4869 19.1342 15.469C18.7575 15.4536 18.3261 15.4545 17.8955 15.4545C17.4645 15.4545 16.7641 15.6086 16.1719 16.224C15.5793 16.8394 13.9092 18.3271 13.9092 21.3527C13.9092 24.3787 16.2257 27.3025 16.5486 27.7132C16.8719 28.1232 21.0205 34.5308 27.5907 36.9958C33.0512 39.0444 34.1623 38.6369 35.3476 38.5344C36.5328 38.4319 39.1719 37.0471 39.7106 35.611C40.2494 34.1752 40.2494 32.9444 40.0878 32.6872C39.9261 32.4309 39.4951 32.2771 38.8487 31.9696C38.2022 31.6621 35.0243 30.1741 34.4317 29.969C33.8391 29.764 33.4081 29.6615 32.9771 30.2772C32.5461 30.8923 31.308 32.2771 30.9309 32.6872C30.5538 33.0981 30.1767 33.1494 29.5302 32.8419C28.8837 32.5334 26.8018 31.8847 24.3321 29.7896C22.4105 28.1597 21.1131 26.1466 20.736 25.5309C20.3589 24.9159 20.6955 24.5827 21.0198 24.2761C21.3101 24.0006 21.6663 23.5582 21.9895 23.1991C22.3121 22.84 22.4198 22.5837 22.6353 22.1737C22.8508 21.763 22.7431 21.4039 22.5815 21.0964C22.4198 20.7889 21.1636 17.7476 20.5888 16.5316Z" fill="white"/>
<path d="M45.1147 8.95685C40.3201 4.18035 33.9447 1.54846 27.1522 1.54547C13.155 1.54547 1.76421 12.8818 1.75858 26.8158C1.75693 31.2699 2.92593 35.6177 5.14789 39.4502L1.54541 52.5455L15.0068 49.0314C18.7157 51.0451 22.8916 52.1062 27.1413 52.1078H27.152H27.1522C41.147 52.1078 52.5394 40.7695 52.5454 26.8362C52.5477 20.0832 49.9087 13.7337 45.1147 8.95685ZM27.1522 47.8397H27.1439C23.356 47.8377 19.6415 46.8253 16.4015 44.9114L15.6305 44.4563L7.6422 46.5414L9.77494 38.7905L9.27257 37.9959C7.15968 34.6513 6.04423 30.7862 6.04588 26.8175C6.0505 15.236 15.5181 5.81397 27.1601 5.81397C32.7979 5.81629 38.0965 8.00398 42.0817 11.974C46.0666 15.9441 48.2595 21.2217 48.2578 26.8346C48.2528 38.4164 38.7849 47.8397 27.1522 47.8397Z" fill="white"/>
</g>
<defs>
<filter id="filter0_d_20_93" x="-2.90918" y="-2.90912" width="67.9092" height="67.9091" filterUnits="userSpaceOnUse" color-interpolation-filters="sRGB">
<feFlood flood-opacity="0" result="BackgroundImageFix"/>
<feColorMatrix in="SourceAlpha" type="matrix" values="0 0 0 0 0 0 0 0 0 0 0 0 0 0 0 0 0 0 127 0" result="hardAlpha"/>
<feOffset dx="4" dy="4"/>
<feGaussianBlur stdDeviation="5"/>
<feComposite in2="hardAlpha" operator="out"/>
<feColorMatrix type="matrix" values="0 0 0 0 0 0 0 0 0 0 0 0 0 0 0 0 0 0 0.25 0"/>
<feBlend mode="normal" in2="BackgroundImageFix" result="effect1_dropShadow_20_93"/>
<feBlend mode="normal" in="SourceGraphic" in2="effect1_dropShadow_20_93" result="shape"/>
</filter>
<linearGradient id="paint0_linear_20_93" x1="27.0454" y1="51" x2="27.0454" y2="3.09096" gradientUnits="userSpaceOnUse">
<stop stop-color="#20B038"/>
<stop offset="1" stop-color="#60D66A"/>
</linearGradient>
<clipPath id="clip0_20_93">
<rect width="68" height="68" fill="white"/>
</clipPath>
</defs>
</svg>
