<svg width="44" height="44" viewBox="0 0 44 44" fill="none" xmlns="http://www.w3.org/2000/svg">
<g clip-path="url(#clip0_1_115)">
<path d="M29.1919 5.79558C26.0895 2.70491 21.9642 1.00189 17.569 1C8.5121 1 1.14157 8.33528 1.13795 17.3514C1.13689 20.2334 1.89331 23.0467 3.33104 25.5265L1 34L9.71031 31.7262C12.1102 33.0292 14.8122 33.7158 17.562 33.7169H17.569H17.569C26.6245 33.7169 33.9962 26.3803 34 17.3646C34.0015 12.995 32.2939 8.88647 29.1919 5.79558ZM17.569 30.9551H17.5637C15.1127 30.9538 12.7092 30.2987 10.6128 29.0602L10.1139 28.7658L4.94499 30.115L6.32501 25.0997L5.99995 24.5855C4.63278 22.4214 3.91103 19.9204 3.91206 17.3524C3.91506 9.85854 10.0412 3.76192 17.5742 3.76192C21.2221 3.76342 24.6507 5.17898 27.2293 7.74786C29.8078 10.3167 31.2267 13.7316 31.2256 17.3635C31.2225 24.8576 25.0961 30.9551 17.569 30.9551Z" fill="#E0E0E0"/>
<g filter="url(#filter0_d_1_115)">
<path d="M2 33L4.18987 25.0399C2.83886 22.7103 2.12839 20.0673 2.12924 17.3604C2.13279 8.89067 9.05697 2 17.5646 2C21.6938 2.00186 25.5693 3.60161 28.4831 6.50511C31.3976 9.40859 33.0017 13.2679 33 17.3724C32.9965 25.8423 26.0718 32.7336 17.5652 32.7336H17.5584C14.9752 32.7327 12.437 32.0872 10.1826 30.8641L2 33Z" fill="url(#paint0_linear_1_115)"/>
</g>
<path fill-rule="evenodd" clip-rule="evenodd" d="M13.3221 10.6969C13.0088 10.0342 12.679 10.0209 12.3809 10.0093C12.1371 9.9994 11.858 10 11.5794 10C11.3005 10 10.8473 10.0997 10.4641 10.4979C10.0806 10.8961 9 11.8587 9 13.8165C9 15.7745 10.499 17.6664 10.7079 17.9321C10.917 18.1974 13.6014 22.3435 17.8528 23.9385C21.386 25.2641 22.105 25.0004 22.8719 24.9341C23.6388 24.8677 25.3465 23.9717 25.6951 23.0424C26.0437 22.1133 26.0437 21.317 25.9391 21.1505C25.8345 20.9847 25.5556 20.8852 25.1373 20.6862C24.719 20.4872 22.6627 19.5244 22.2793 19.3917C21.8958 19.2591 21.617 19.1927 21.3381 19.5912C21.0592 19.9891 20.2581 20.8852 20.0141 21.1505C19.77 21.4165 19.526 21.4496 19.1077 21.2506C18.6894 21.051 17.3423 20.6313 15.7442 19.2756C14.5008 18.221 13.6614 16.9184 13.4173 16.52C13.1733 16.1221 13.3912 15.9065 13.601 15.7081C13.7888 15.5298 14.0193 15.2436 14.2285 15.0112C14.4372 14.7788 14.5069 14.613 14.6463 14.3477C14.7858 14.0819 14.7161 13.8496 14.6115 13.6506C14.5069 13.4516 13.694 11.4837 13.3221 10.6969Z" fill="white"/>
<path d="M29.1919 5.7956C26.0895 2.70492 21.9642 1.00193 17.5691 1C8.5121 1 1.14158 8.33528 1.13793 17.3514C1.13687 20.2335 1.89328 23.0467 3.33101 25.5266L1 34L9.71032 31.7262C12.1102 33.0291 14.8123 33.7158 17.562 33.7168H17.569H17.5691C26.6245 33.7168 33.9961 26.3803 34 17.3646C34.0015 12.995 32.2939 8.88649 29.1919 5.7956ZM17.5691 30.9551H17.5637C15.1127 30.9538 12.7092 30.2987 10.6128 29.0603L10.1139 28.7659L4.94498 30.115L6.32499 25.0997L5.99993 24.5856C4.63276 22.4214 3.911 19.9205 3.91207 17.3525C3.91506 9.85859 10.0412 3.76197 17.5742 3.76197C21.2222 3.76347 24.6507 5.17904 27.2294 7.7479C29.8078 10.3168 31.2267 13.7317 31.2257 17.3636C31.2224 24.8576 25.0961 30.9551 17.5691 30.9551Z" fill="white"/>
</g>
<defs>
<filter id="filter0_d_1_115" x="-4" y="-4" width="51" height="51" filterUnits="userSpaceOnUse" color-interpolation-filters="sRGB">
<feFlood flood-opacity="0" result="BackgroundImageFix"/>
<feColorMatrix in="SourceAlpha" type="matrix" values="0 0 0 0 0 0 0 0 0 0 0 0 0 0 0 0 0 0 127 0" result="hardAlpha"/>
<feOffset dx="4" dy="4"/>
<feGaussianBlur stdDeviation="5"/>
<feComposite in2="hardAlpha" operator="out"/>
<feColorMatrix type="matrix" values="0 0 0 0 0 0 0 0 0 0 0 0 0 0 0 0 0 0 0.25 0"/>
<feBlend mode="normal" in2="BackgroundImageFix" result="effect1_dropShadow_1_115"/>
<feBlend mode="normal" in="SourceGraphic" in2="effect1_dropShadow_1_115" result="shape"/>
</filter>
<linearGradient id="paint0_linear_1_115" x1="17.5" y1="33" x2="17.5" y2="2.00005" gradientUnits="userSpaceOnUse">
<stop stop-color="#20B038"/>
<stop offset="1" stop-color="#60D66A"/>
</linearGradient>
<clipPath id="clip0_1_115">
<rect width="44" height="44" fill="white"/>
</clipPath>
</defs>
</svg>
