<svg width="53" height="53" viewBox="0 0 53 53" fill="none" xmlns="http://www.w3.org/2000/svg">
<g clip-path="url(#clip0_1_112)">
<g filter="url(#filter0_d_1_112)">
<path d="M24.6094 8.03713C20.1778 8.40321 17.1175 9.57185 14.3552 11.9514C13.411 12.7652 12.1548 14.1112 11.5984 14.9082C9.48801 17.9213 8.61967 21.8017 9.1536 25.8174C9.266 26.6565 9.5414 27.8646 9.79993 28.6615C10.5755 31.0467 11.7502 33.0545 13.4334 34.8764C13.8859 35.3664 15.142 36.5238 15.5888 36.8617C17.7498 38.4978 20.6752 39.5904 23.7523 39.9086C26.3629 40.179 28.9707 39.8467 31.2385 38.9484C32.7757 38.3401 34.0655 37.5432 35.4987 36.3098C35.9258 35.9437 36.9853 34.8708 37.3253 34.4653C39.1744 32.2322 40.2226 29.8189 40.6806 26.7326C40.8014 25.9216 40.8548 25.4147 40.9504 24.17C41.0206 23.2379 41.0206 23.1928 40.9223 23.6209C39.9977 27.7379 36.6846 31.8408 32.7026 33.8007C30.4236 34.9215 27.9478 35.3214 25.326 34.9975C22.6001 34.6568 20.0822 33.536 18.2894 31.8633C17.8566 31.4606 17.1063 30.6552 16.7635 30.2244C15.3247 28.4193 14.3664 26.282 13.9758 24.001C13.8297 23.1506 13.7931 22.6691 13.7931 21.7201C13.7931 20.4641 13.9056 19.5349 14.2006 18.3409C14.5435 16.9554 15.1842 15.4066 15.7771 14.5196C17.7442 11.5684 19.5343 9.85908 21.6278 8.93262C22.5355 8.53275 23.6034 8.23143 24.6375 8.09063C25.3597 7.98926 25.3513 7.97518 24.6094 8.03713Z" fill="#6B6B6B"/>
</g>
</g>
<defs>
<filter id="filter0_d_1_112" x="3" y="2" width="52" height="52" filterUnits="userSpaceOnUse" color-interpolation-filters="sRGB">
<feFlood flood-opacity="0" result="BackgroundImageFix"/>
<feColorMatrix in="SourceAlpha" type="matrix" values="0 0 0 0 0 0 0 0 0 0 0 0 0 0 0 0 0 0 127 0" result="hardAlpha"/>
<feOffset dx="4" dy="4"/>
<feGaussianBlur stdDeviation="5"/>
<feComposite in2="hardAlpha" operator="out"/>
<feColorMatrix type="matrix" values="0 0 0 0 0 0 0 0 0 0 0 0 0 0 0 0 0 0 0.25 0"/>
<feBlend mode="normal" in2="BackgroundImageFix" result="effect1_dropShadow_1_112"/>
<feBlend mode="normal" in="SourceGraphic" in2="effect1_dropShadow_1_112" result="shape"/>
</filter>
<clipPath id="clip0_1_112">
<rect width="53" height="53" fill="white"/>
</clipPath>
</defs>
</svg>
