<svg width="84" height="84" viewBox="0 0 84 84" fill="none" xmlns="http://www.w3.org/2000/svg">
<g clip-path="url(#clip0_20_93)">
<path d="M55.73 11.0643C49.8073 5.16394 41.9318 1.91272 33.541 1.90912C16.2505 1.90912 2.17946 15.9128 2.17253 33.1254C2.17052 38.6275 3.61458 43.9983 6.35936 48.7325L1.90918 64.9091L18.538 60.5683C23.1195 63.0558 28.278 64.3665 33.5275 64.3686H33.5408H33.541C50.8287 64.3686 64.9018 50.3624 64.9092 33.1507C64.9121 24.8087 61.652 16.9651 55.73 11.0643ZM33.541 59.0961H33.5308C28.8517 59.0936 24.2632 57.843 20.2609 55.4787L19.3084 54.9166L9.44053 57.4922L12.0751 47.9176L11.4545 46.936C8.84449 42.8045 7.4666 38.03 7.46857 33.1274C7.4743 18.8209 19.1696 7.18187 33.5509 7.18187C40.515 7.18475 47.0605 9.88718 51.9833 14.7914C56.9058 19.6956 59.6147 26.215 59.6127 33.1485C59.6066 47.4555 47.9109 59.0961 33.541 59.0961Z" fill="#E0E0E0"/>
<g filter="url(#filter0_d_20_93)">
<path d="M3.81836 63L7.99901 47.8035C5.41981 43.356 4.06347 38.3102 4.0651 33.1425C4.07186 16.9731 17.2908 3.81818 33.5327 3.81818C41.4156 3.82172 48.8143 6.8758 54.3771 12.4188C59.9411 17.9618 63.0034 25.3297 63.0002 33.1654C62.9934 49.3352 49.7737 62.4913 33.5338 62.4913V62.4913H33.5207C28.5892 62.4898 23.7435 61.2574 19.4397 58.9223L3.81836 63Z" fill="url(#paint0_linear_20_93)"/>
</g>
<path fill-rule="evenodd" clip-rule="evenodd" d="M25.433 20.4213C24.8349 19.1562 24.2052 19.1309 23.6361 19.1087C23.1707 19.0897 22.6379 19.0909 22.1059 19.0909C21.5735 19.0909 20.7084 19.2812 19.9767 20.0414C19.2447 20.8016 17.1816 22.6393 17.1816 26.3769C17.1816 30.1149 20.0433 33.7266 20.4422 34.2339C20.8415 34.7405 25.9662 42.6557 34.0824 45.7007C40.8276 48.2314 42.2002 47.728 43.6643 47.6014C45.1284 47.4747 48.3885 45.764 49.054 43.99C49.7195 42.2164 49.7195 40.696 49.5199 40.3782C49.3202 40.0617 48.7878 39.8717 47.9892 39.4918C47.1906 39.1119 43.265 37.2738 42.533 37.0206C41.8009 36.7673 41.2685 36.6407 40.7362 37.4013C40.2038 38.161 38.6743 39.8717 38.2085 40.3782C37.7426 40.8859 37.2768 40.9492 36.4782 40.5694C35.6796 40.1883 33.1078 39.3869 30.057 36.7989C27.6832 34.7855 26.0806 32.2988 25.6147 31.5382C25.1489 30.7784 25.5648 30.3669 25.9654 29.9882C26.3239 29.6478 26.764 29.1013 27.1633 28.6577C27.5617 28.2141 27.6948 27.8975 27.961 27.391C28.2272 26.8837 28.0941 26.4401 27.8945 26.0602C27.6948 25.6803 26.143 21.9235 25.433 20.4213Z" fill="white"/>
<path d="M55.73 11.0643C49.8073 5.16397 41.9318 1.91281 33.5411 1.90912C16.2505 1.90912 2.17946 15.9128 2.17251 33.1254C2.17047 38.6275 3.61453 43.9983 6.3593 48.7326L1.90918 64.9091L18.538 60.5682C23.1196 63.0557 28.2781 64.3665 33.5276 64.3685H33.5409H33.5411C50.8288 64.3685 64.9018 50.3624 64.9092 33.1506C64.9121 24.8087 61.652 16.9651 55.73 11.0643ZM33.5411 59.0961H33.5309C28.8517 59.0937 24.2631 57.8431 20.2609 55.4788L19.3084 54.9166L9.44051 57.4923L12.0751 47.9177L11.4545 46.9361C8.84445 42.8046 7.46655 38.03 7.46859 33.1275C7.47429 18.821 19.1696 7.18197 33.5509 7.18197C40.5152 7.18483 47.0605 9.88728 51.9834 14.7915C56.9059 19.6957 59.6148 26.2151 59.6127 33.1487C59.6066 47.4555 47.9109 59.0961 33.5411 59.0961Z" fill="white"/>
</g>
<defs>
<filter id="filter0_d_20_93" x="-2.18164" y="-2.18182" width="79.1816" height="79.1818" filterUnits="userSpaceOnUse" color-interpolation-filters="sRGB">
<feFlood flood-opacity="0" result="BackgroundImageFix"/>
<feColorMatrix in="SourceAlpha" type="matrix" values="0 0 0 0 0 0 0 0 0 0 0 0 0 0 0 0 0 0 127 0" result="hardAlpha"/>
<feOffset dx="4" dy="4"/>
<feGaussianBlur stdDeviation="5"/>
<feComposite in2="hardAlpha" operator="out"/>
<feColorMatrix type="matrix" values="0 0 0 0 0 0 0 0 0 0 0 0 0 0 0 0 0 0 0.25 0"/>
<feBlend mode="normal" in2="BackgroundImageFix" result="effect1_dropShadow_20_93"/>
<feBlend mode="normal" in="SourceGraphic" in2="effect1_dropShadow_20_93" result="shape"/>
</filter>
<linearGradient id="paint0_linear_20_93" x1="33.4093" y1="63" x2="33.4093" y2="3.81828" gradientUnits="userSpaceOnUse">
<stop stop-color="#20B038"/>
<stop offset="1" stop-color="#60D66A"/>
</linearGradient>
<clipPath id="clip0_20_93">
<rect width="84" height="84" fill="white"/>
</clipPath>
</defs>
</svg>
